<svg id="Layer_4" data-name="Layer 4" xmlns="http://www.w3.org/2000/svg" xmlns:xlink="http://www.w3.org/1999/xlink" viewBox="0 0 1077 500.42"><defs><style>.cls-1{fill:#b5b5b5;}.cls-2{fill:#6d6d6d;}.cls-3{fill:#070415;}.cls-10,.cls-3,.cls-7,.cls-8,.cls-9{opacity:0.9;}.cls-4{fill:#faae0a;}.cls-5{fill:url(#linear-gradient);}.cls-6{fill:#9b9b9b;}.cls-7{fill:#0a071c;}.cls-8{fill:url(#linear-gradient-2);}.cls-9{fill:url(#linear-gradient-3);}.cls-10{fill:url(#linear-gradient-4);}</style><linearGradient id="linear-gradient" x1="996.5" y1="500.42" x2="996.5" y2="169" gradientUnits="userSpaceOnUse"><stop offset="0.1" stop-color="#070415"/><stop offset="0.55" stop-color="#070415" stop-opacity="0"/></linearGradient><linearGradient id="linear-gradient-2" x1="439.5" y1="500" x2="439.5" y2="119" xlink:href="#linear-gradient"/><linearGradient id="linear-gradient-3" x1="739.5" y1="500" x2="739.5" y2="199" xlink:href="#linear-gradient"/><linearGradient id="linear-gradient-4" x1="139.5" y1="500" x2="139.5" y2="199" xlink:href="#linear-gradient"/></defs><title>buildings-202</title><rect class="cls-1" x="927" y="169" width="150" height="323"/><polygon class="cls-2" points="916 177.09 928.04 169 1077 169 1076.78 500 916 500.42 916 177.09"/><rect class="cls-1" x="917" y="177" width="150" height="323"/><polygon class="cls-3" points="916 177.09 928.04 169 1077 169 1076.78 500 916 500.42 916 177.09"/><rect class="cls-4" x="927" y="187" width="11" height="20"/><rect class="cls-4" x="940" y="187" width="11" height="20"/><rect class="cls-4" x="954" y="187" width="11" height="20"/><rect class="cls-4" x="997" y="187" width="11" height="20"/><rect class="cls-4" x="1010" y="187" width="11" height="20"/><rect class="cls-4" x="1024" y="187" width="11" height="20"/><rect class="cls-4" x="964" y="339" width="11" height="20"/><rect class="cls-4" x="978" y="339" width="11" height="20"/><rect class="cls-4" x="991" y="339" width="11" height="20"/><rect class="cls-4" x="927" y="270" width="11" height="20"/><rect class="cls-4" x="940" y="270" width="11" height="20"/><rect class="cls-4" x="954" y="270" width="11" height="20"/><rect class="cls-4" x="1002" y="401" width="11" height="20"/><rect class="cls-4" x="1016" y="401" width="11" height="20"/><rect class="cls-4" x="1029" y="401" width="11" height="20"/><rect class="cls-4" x="927" y="401" width="11" height="20"/><rect class="cls-4" x="940" y="401" width="11" height="20"/><rect class="cls-4" x="954" y="401" width="11" height="20"/><polygon class="cls-5" points="916 177.09 928.04 169 1077 169 1076.78 500 916 500.42 916 177.09"/><polygon class="cls-6" points="403 119 396 126 396 500 403 500 483 500 483 119 403 119"/><rect class="cls-1" x="396" y="126" width="80" height="374"/><polygon class="cls-3" points="403 119 396 126 396 500 403 500 483 500 483 119 403 119"/><rect class="cls-4" x="401" y="260" width="41" height="5"/><rect class="cls-4" x="447" y="331" width="24" height="5"/><rect class="cls-4" x="418" y="388" width="52" height="5"/><rect class="cls-4" x="428" y="280" width="41" height="5"/><rect class="cls-4" x="401" y="464" width="41" height="5"/><rect class="cls-4" x="401" y="489" width="41" height="5"/><rect class="cls-1" x="411" width="5" height="123"/><rect class="cls-7" x="411" width="5" height="123"/><rect class="cls-4" x="403" y="133" width="8" height="114"/><rect class="cls-4" x="421" y="133" width="8" height="114"/><rect class="cls-4" x="440" y="133" width="8" height="114"/><rect class="cls-4" x="462" y="133" width="8" height="114"/><polygon class="cls-8" points="403 119 396 126 396 500 403 500 483 500 483 119 403 119"/><rect class="cls-1" x="609" y="199" width="270" height="301"/><polygon class="cls-6" points="600 207.66 609.32 199 879 199 879 500 600 500 600 207.66"/><rect class="cls-1" x="600" y="207" width="270" height="293"/><polygon class="cls-3" points="609.32 199 600 207.66 600 500 609.32 500 879 500 879 199 609.32 199"/><rect class="cls-4" x="609" y="230" width="50" height="21"/><rect class="cls-4" x="663" y="230" width="50" height="21"/><rect class="cls-4" x="717" y="230" width="50" height="21"/><rect class="cls-4" x="666" y="382" width="50" height="21"/><rect class="cls-4" x="609" y="339" width="50" height="21"/><rect class="cls-4" x="719" y="382" width="50" height="21"/><rect class="cls-4" x="755" y="463" width="50" height="21"/><rect class="cls-4" x="809" y="463" width="50" height="21"/><rect class="cls-4" x="809" y="292" width="50" height="21"/><polygon class="cls-9" points="609.32 199 600 207.66 600 500 609.32 500 879 500 879 199 609.32 199"/><rect class="cls-1" x="9" y="199" width="270" height="301"/><polygon class="cls-6" points="0 207.66 9.32 199 279 199 279 500 0 500 0 207.66"/><rect class="cls-1" y="207" width="270" height="293"/><polygon class="cls-3" points="9.32 199 0 207.66 0 500 9.32 500 279 500 279 199 9.32 199"/><rect class="cls-4" x="9" y="230" width="50" height="21"/><rect class="cls-4" x="63" y="230" width="50" height="21"/><rect class="cls-4" x="116" y="230" width="50" height="21"/><rect class="cls-4" x="65" y="382" width="50" height="21"/><rect class="cls-4" x="9" y="339" width="50" height="21"/><rect class="cls-4" x="119" y="382" width="50" height="21"/><rect class="cls-4" x="155" y="463" width="50" height="21"/><rect class="cls-4" x="208" y="463" width="50" height="21"/><rect class="cls-4" x="208" y="292" width="50" height="21"/><polygon class="cls-10" points="9.32 199 0 207.66 0 500 9.32 500 279 500 279 199 9.32 199"/></svg>