<svg id="Layer_4" data-name="Layer 4" xmlns="http://www.w3.org/2000/svg" xmlns:xlink="http://www.w3.org/1999/xlink" viewBox="0 0 483.33 500"><defs><style>.cls-1{fill:#9b9b9b;}.cls-2{fill:#b5b5b5;}.cls-3{fill:#0a071c;}.cls-3,.cls-4,.cls-6{opacity:0.9;}.cls-4{fill:url(#linear-gradient);}.cls-5{fill:#faae0a;}.cls-6{fill:url(#linear-gradient-2);}</style><linearGradient id="linear-gradient" x1="43.5" y1="500" x2="43.5" y2="119" gradientUnits="userSpaceOnUse"><stop offset="0.1" stop-color="#070415"/><stop offset="0.55" stop-color="#070415" stop-opacity="0"/></linearGradient><linearGradient id="linear-gradient-2" x1="343.67" x2="343.67" y2="198.67" xlink:href="#linear-gradient"/></defs><title>buildings-103</title><polygon class="cls-1" points="7 119 0 126 0 500 7 500 87 500 87 119 7 119"/><rect class="cls-2" y="126" width="80" height="374"/><polygon class="cls-3" points="7 119 0 126 0 500 7 500 87 500 87 119 7 119"/><polygon class="cls-4" points="7 119 0 126 0 500 7 500 87 500 87 119 7 119"/><rect class="cls-5" x="5" y="259.5" width="41" height="5"/><rect class="cls-5" x="50.67" y="330.83" width="23.67" height="5"/><rect class="cls-5" x="22.33" y="387.92" width="52" height="5"/><rect class="cls-5" x="32.33" y="279.83" width="41" height="5"/><rect class="cls-5" x="5" y="463.5" width="41" height="5"/><rect class="cls-5" x="5" y="488.83" width="41" height="5"/><rect class="cls-2" x="15" width="5" height="123"/><rect class="cls-5" x="6.67" y="132.67" width="8.33" height="114.33"/><rect class="cls-5" x="25.28" y="132.67" width="8.33" height="114.33"/><rect class="cls-5" x="43.89" y="132.67" width="8.33" height="114.33"/><rect class="cls-5" x="65.5" y="132.67" width="8.33" height="114.33"/><rect class="cls-2" x="213.33" y="198.67" width="270" height="301.33"/><polygon class="cls-1" points="204 207.33 213.33 198.67 483.33 198.67 483.33 500 204 500 204 207.33"/><rect class="cls-2" x="204" y="207.33" width="270" height="292.67"/><polygon class="cls-3" points="213.33 198.67 204 207.33 204 500 213.33 500 483.33 500 483.33 198.67 213.33 198.67"/><polygon class="cls-6" points="213.33 198.67 204 207.33 204 500 213.33 500 483.33 500 483.33 198.67 213.33 198.67"/><rect class="cls-5" x="213.33" y="230.42" width="50" height="20.83"/><rect class="cls-5" x="266.96" y="230.42" width="50" height="20.83"/><rect class="cls-5" x="320.58" y="230.42" width="50" height="20.83"/><rect class="cls-5" x="269.71" y="382.5" width="50" height="20.83"/><rect class="cls-5" x="213.33" y="338.92" width="50" height="20.83"/><rect class="cls-5" x="323.33" y="382.5" width="50" height="20.83"/><rect class="cls-5" x="358.96" y="463.5" width="50" height="20.83"/><rect class="cls-5" x="412.58" y="463.5" width="50" height="20.83"/><rect class="cls-5" x="412.58" y="292.17" width="50" height="20.83"/></svg>