<svg id="Layer_1" data-name="Layer 1" xmlns="http://www.w3.org/2000/svg" viewBox="0 0 1920 326.62"><defs><style>.cls-1{fill:#070415;}.cls-2{fill:#faae0a;}</style></defs><title>buildings-2</title><polygon class="cls-1" points="461.85 326.62 461.85 63.37 216.22 63.37 216.22 143.06 138.49 143.06 138.49 0 0 0 0 326.62 138.49 326.62 461.85 326.62"/><rect class="cls-2" x="59.45" y="124.12" width="18.94" height="18.94"/><rect class="cls-2" x="60.1" y="69.57" width="18.94" height="18.94"/><rect class="cls-2" x="111.71" y="124.12" width="18.94" height="18.94"/><rect class="cls-2" x="33.32" y="248.23" width="18.94" height="18.94"/><rect class="cls-2" x="8.82" y="248.23" width="18.94" height="18.94"/><rect class="cls-2" x="60.1" y="10.78" width="18.94" height="18.94"/><rect class="cls-2" x="85.58" y="10.78" width="18.94" height="18.94"/><rect class="cls-2" x="155.15" y="151.55" width="18.94" height="18.94"/><rect class="cls-2" x="230.27" y="75.78" width="18.94" height="18.94"/><rect class="cls-2" x="394.89" y="144.37" width="18.94" height="18.94"/><rect class="cls-2" x="296.25" y="205.12" width="18.94" height="18.94"/><rect class="cls-2" x="155.15" y="248.23" width="18.94" height="18.94"/><rect class="cls-2" x="180.62" y="248.23" width="18.94" height="18.94"/><polygon class="cls-1" points="1705.2 326.62 1705.2 63.37 1459.58 63.37 1459.58 143.06 1381.85 143.06 1381.85 0 1243.36 0 1243.36 326.62 1381.85 326.62 1705.2 326.62"/><rect class="cls-2" x="1302.8" y="124.12" width="18.94" height="18.94"/><rect class="cls-2" x="1303.46" y="69.57" width="18.94" height="18.94"/><rect class="cls-2" x="1355.06" y="124.12" width="18.94" height="18.94"/><rect class="cls-2" x="1276.67" y="248.23" width="18.94" height="18.94"/><rect class="cls-2" x="1252.18" y="248.23" width="18.94" height="18.94"/><rect class="cls-2" x="1303.46" y="10.78" width="18.94" height="18.94"/><rect class="cls-2" x="1328.93" y="10.78" width="18.94" height="18.94"/><rect class="cls-2" x="1398.5" y="151.55" width="18.94" height="18.94"/><rect class="cls-2" x="1473.63" y="75.78" width="18.94" height="18.94"/><rect class="cls-2" x="1638.25" y="144.37" width="18.94" height="18.94"/><rect class="cls-2" x="1539.61" y="205.12" width="18.94" height="18.94"/><rect class="cls-2" x="1398.5" y="248.23" width="18.94" height="18.94"/><rect class="cls-2" x="1423.98" y="248.23" width="18.94" height="18.94"/><polygon class="cls-1" points="1058.91 326.62 1058.91 160.04 920.42 160.04 920.42 37.89 819.83 37.89 819.83 124.77 640.84 124.77 640.84 0 461.85 0 461.85 326.62 640.84 326.62 1058.91 326.62"/><rect class="cls-2" x="528.15" y="18.94" width="18.94" height="18.94"/><rect class="cls-2" x="603.93" y="115.3" width="18.94" height="18.94"/><rect class="cls-2" x="577.8" y="115.3" width="18.94" height="18.94"/><rect class="cls-2" x="554.93" y="18.94" width="18.94" height="18.94"/><rect class="cls-2" x="478.18" y="241.05" width="18.94" height="18.94"/><rect class="cls-2" x="504.96" y="241.05" width="18.94" height="18.94"/><rect class="cls-2" x="530.44" y="241.05" width="18.94" height="18.94"/><rect class="cls-2" x="747.31" y="137.51" width="18.94" height="18.94"/><rect class="cls-2" x="772.79" y="137.51" width="18.94" height="18.94"/><rect class="cls-2" x="827.99" y="46.71" width="18.94" height="18.94"/><rect class="cls-2" x="853.47" y="46.71" width="18.94" height="18.94"/><rect class="cls-2" x="853.47" y="73.49" width="18.94" height="18.94"/><rect class="cls-2" x="878.94" y="73.49" width="18.94" height="18.94"/><rect class="cls-2" x="827.99" y="117.26" width="18.94" height="18.94"/><rect class="cls-2" x="853.47" y="117.26" width="18.94" height="18.94"/><rect class="cls-2" x="853.47" y="208.71" width="18.94" height="18.94"/><rect class="cls-2" x="897.89" y="288.08" width="18.94" height="18.94"/><rect class="cls-2" x="897.89" y="117.26" width="18.94" height="18.94"/><rect class="cls-2" x="772.79" y="259.99" width="18.94" height="18.94"/><polygon class="cls-1" points="1920 160.04 1917.79 160.04 1917.79 37.89 1817.19 37.89 1817.19 124.77 1638.2 124.77 1638.2 0 1459.21 0 1459.21 326.62 1638.2 326.62 1920 326.62 1920 160.04"/><rect class="cls-2" x="1525.52" y="18.94" width="18.94" height="18.94"/><rect class="cls-2" x="1601.3" y="115.3" width="18.94" height="18.94"/><rect class="cls-2" x="1575.17" y="115.3" width="18.94" height="18.94"/><rect class="cls-2" x="1552.3" y="18.94" width="18.94" height="18.94"/><rect class="cls-2" x="1475.55" y="241.05" width="18.94" height="18.94"/><rect class="cls-2" x="1502.33" y="241.05" width="18.94" height="18.94"/><rect class="cls-2" x="1527.81" y="241.05" width="18.94" height="18.94"/><rect class="cls-2" x="1744.68" y="137.51" width="18.94" height="18.94"/><rect class="cls-2" x="1770.16" y="137.51" width="18.94" height="18.94"/><rect class="cls-2" x="1825.36" y="46.71" width="18.94" height="18.94"/><rect class="cls-2" x="1850.84" y="46.71" width="18.94" height="18.94"/><rect class="cls-2" x="1850.84" y="73.49" width="18.94" height="18.94"/><rect class="cls-2" x="1876.31" y="73.49" width="18.94" height="18.94"/><rect class="cls-2" x="1825.36" y="117.26" width="18.94" height="18.94"/><rect class="cls-2" x="1850.84" y="117.26" width="18.94" height="18.94"/><rect class="cls-2" x="1850.84" y="208.71" width="18.94" height="18.94"/><rect class="cls-2" x="1895.26" y="288.08" width="18.94" height="18.94"/><rect class="cls-2" x="1895.26" y="117.26" width="18.94" height="18.94"/><rect class="cls-2" x="1770.16" y="259.99" width="18.94" height="18.94"/></svg>