<svg id="Layer_4" data-name="Layer 4" xmlns="http://www.w3.org/2000/svg" xmlns:xlink="http://www.w3.org/1999/xlink" viewBox="0 0 1925 500"><defs><style>.cls-1{fill:#b5b5b5;}.cls-2{fill:#6d6d6d;}.cls-3{fill:#070415;}.cls-10,.cls-3,.cls-7,.cls-8,.cls-9{opacity:0.9;}.cls-4{fill:#faae0a;}.cls-5{fill:url(#linear-gradient);}.cls-6{fill:#9b9b9b;}.cls-7{fill:#0a071c;}.cls-8{fill:url(#linear-gradient-2);}.cls-9{fill:url(#linear-gradient-3);}.cls-10{fill:url(#linear-gradient-4);}</style><linearGradient id="linear-gradient" x1="1111.5" y1="500.42" x2="1111.5" y2="169" gradientUnits="userSpaceOnUse"><stop offset="0.1" stop-color="#070415"/><stop offset="0.55" stop-color="#070415" stop-opacity="0"/></linearGradient><linearGradient id="linear-gradient-2" x1="554.5" y1="500" x2="554.5" y2="119" xlink:href="#linear-gradient"/><linearGradient id="linear-gradient-3" x1="854.5" y1="500" x2="854.5" y2="199" xlink:href="#linear-gradient"/><linearGradient id="linear-gradient-4" x1="254.5" y1="500" x2="254.5" y2="199" xlink:href="#linear-gradient"/></defs><title>Artboard 1</title><rect class="cls-1" x="1042" y="169" width="150" height="323"/><polygon class="cls-2" points="1031 177.09 1043.04 169 1192 169 1191.78 500 1031 500.42 1031 177.09"/><rect class="cls-1" x="1032" y="177" width="150" height="323"/><polygon class="cls-3" points="1031 177.09 1043.04 169 1192 169 1191.78 500 1031 500.42 1031 177.09"/><rect class="cls-4" x="1042" y="187" width="11" height="20"/><rect class="cls-4" x="1055" y="187" width="11" height="20"/><rect class="cls-4" x="1069" y="187" width="11" height="20"/><rect class="cls-4" x="1112" y="187" width="11" height="20"/><rect class="cls-4" x="1125" y="187" width="11" height="20"/><rect class="cls-4" x="1139" y="187" width="11" height="20"/><rect class="cls-4" x="1079" y="339" width="11" height="20"/><rect class="cls-4" x="1093" y="339" width="11" height="20"/><rect class="cls-4" x="1106" y="339" width="11" height="20"/><rect class="cls-4" x="1042" y="270" width="11" height="20"/><rect class="cls-4" x="1055" y="270" width="11" height="20"/><rect class="cls-4" x="1069" y="270" width="11" height="20"/><rect class="cls-4" x="1117" y="401" width="11" height="20"/><rect class="cls-4" x="1131" y="401" width="11" height="20"/><rect class="cls-4" x="1144" y="401" width="11" height="20"/><rect class="cls-4" x="1042" y="401" width="11" height="20"/><rect class="cls-4" x="1055" y="401" width="11" height="20"/><rect class="cls-4" x="1069" y="401" width="11" height="20"/><polygon class="cls-5" points="1031 177.09 1043.04 169 1192 169 1191.78 500 1031 500.42 1031 177.09"/><polygon class="cls-6" points="518 119 511 126 511 500 518 500 598 500 598 119 518 119"/><rect class="cls-1" x="511" y="126" width="80" height="374"/><polygon class="cls-3" points="518 119 511 126 511 500 518 500 598 500 598 119 518 119"/><rect class="cls-4" x="516" y="260" width="41" height="5"/><rect class="cls-4" x="562" y="331" width="24" height="5"/><rect class="cls-4" x="533" y="388" width="52" height="5"/><rect class="cls-4" x="543" y="280" width="41" height="5"/><rect class="cls-4" x="516" y="464" width="41" height="5"/><rect class="cls-4" x="516" y="489" width="41" height="5"/><rect class="cls-1" x="526" width="5" height="123"/><rect class="cls-7" x="526" width="5" height="123"/><rect class="cls-4" x="518" y="133" width="8" height="114"/><rect class="cls-4" x="536" y="133" width="8" height="114"/><rect class="cls-4" x="555" y="133" width="8" height="114"/><rect class="cls-4" x="577" y="133" width="8" height="114"/><polygon class="cls-8" points="518 119 511 126 511 500 518 500 598 500 598 119 518 119"/><rect class="cls-1" x="724" y="199" width="270" height="301"/><polygon class="cls-6" points="715 207.66 724.32 199 994 199 994 500 715 500 715 207.66"/><rect class="cls-1" x="715" y="207" width="270" height="293"/><polygon class="cls-3" points="724.32 199 715 207.66 715 500 724.32 500 994 500 994 199 724.32 199"/><rect class="cls-4" x="724" y="230" width="50" height="21"/><rect class="cls-4" x="778" y="230" width="50" height="21"/><rect class="cls-4" x="832" y="230" width="50" height="21"/><rect class="cls-4" x="781" y="382" width="50" height="21"/><rect class="cls-4" x="724" y="339" width="50" height="21"/><rect class="cls-4" x="834" y="382" width="50" height="21"/><rect class="cls-4" x="870" y="463" width="50" height="21"/><rect class="cls-4" x="924" y="463" width="50" height="21"/><rect class="cls-4" x="924" y="292" width="50" height="21"/><polygon class="cls-9" points="724.32 199 715 207.66 715 500 724.32 500 994 500 994 199 724.32 199"/><rect class="cls-1" x="124" y="199" width="270" height="301"/><polygon class="cls-6" points="115 207.66 124.32 199 394 199 394 500 115 500 115 207.66"/><rect class="cls-1" x="115" y="207" width="270" height="293"/><polygon class="cls-3" points="124.32 199 115 207.66 115 500 124.32 500 394 500 394 199 124.32 199"/><rect class="cls-4" x="124" y="230" width="50" height="21"/><rect class="cls-4" x="178" y="230" width="50" height="21"/><rect class="cls-4" x="231" y="230" width="50" height="21"/><rect class="cls-4" x="180" y="382" width="50" height="21"/><rect class="cls-4" x="124" y="339" width="50" height="21"/><rect class="cls-4" x="234" y="382" width="50" height="21"/><rect class="cls-4" x="270" y="463" width="50" height="21"/><rect class="cls-4" x="323" y="463" width="50" height="21"/><rect class="cls-4" x="323" y="292" width="50" height="21"/><polygon class="cls-10" points="124.32 199 115 207.66 115 500 124.32 500 394 500 394 199 124.32 199"/></svg>