<svg id="Layer_1" data-name="Layer 1" xmlns="http://www.w3.org/2000/svg" viewBox="0 0 1925 500"><defs><style>.cls-1{fill:#02020a;}.cls-2{fill:#faae0a;}</style></defs><title>buildings-1</title><polygon class="cls-1" points="1925 500 1925 97 1549 97 1549 219 1430 219 1430 0 1218 0 1218 500 1430 500 1925 500"/><polygon class="cls-1" points="914 500 914 245 702 245 702 58 548 58 548 191 274 191 274 0 0 0 0 500 274 500 914 500"/><rect class="cls-2" x="101.5" y="29" width="29" height="29"/><rect class="cls-2" x="217.5" y="176.5" width="29" height="29"/><rect class="cls-2" x="177.5" y="176.5" width="29" height="29"/><rect class="cls-2" x="142.5" y="29" width="29" height="29"/><rect class="cls-2" x="25" y="369" width="29" height="29"/><rect class="cls-2" x="66" y="369" width="29" height="29"/><rect class="cls-2" x="105" y="369" width="29" height="29"/><rect class="cls-2" x="1309" y="190" width="29" height="29"/><rect class="cls-2" x="1310" y="106.5" width="29" height="29"/><rect class="cls-2" x="1389" y="190" width="29" height="29"/><rect class="cls-2" x="1269" y="380" width="29" height="29"/><rect class="cls-2" x="1231.5" y="380" width="29" height="29"/><rect class="cls-2" x="1310" y="16.5" width="29" height="29"/><rect class="cls-2" x="1349" y="16.5" width="29" height="29"/><rect class="cls-2" x="1455.5" y="232" width="29" height="29"/><rect class="cls-2" x="1570.5" y="116" width="29" height="29"/><rect class="cls-2" x="1822.5" y="221" width="29" height="29"/><rect class="cls-2" x="1671.5" y="314" width="29" height="29"/><rect class="cls-2" x="1455.5" y="380" width="29" height="29"/><rect class="cls-2" x="1494.5" y="380" width="29" height="29"/><rect class="cls-2" x="437" y="210.5" width="29" height="29"/><rect class="cls-2" x="476" y="210.5" width="29" height="29"/><rect class="cls-2" x="560.5" y="71.5" width="29" height="29"/><rect class="cls-2" x="599.5" y="71.5" width="29" height="29"/><rect class="cls-2" x="599.5" y="112.5" width="29" height="29"/><rect class="cls-2" x="638.5" y="112.5" width="29" height="29"/><rect class="cls-2" x="560.5" y="179.5" width="29" height="29"/><rect class="cls-2" x="599.5" y="179.5" width="29" height="29"/><rect class="cls-2" x="599.5" y="319.5" width="29" height="29"/><rect class="cls-2" x="667.5" y="441" width="29" height="29"/><rect class="cls-2" x="667.5" y="179.5" width="29" height="29"/><rect class="cls-2" x="476" y="398" width="29" height="29"/></svg>