<?xml version="1.0" encoding="utf-8"?>
<!-- Generator: Adobe Illustrator 22.0.1, SVG Export Plug-In . SVG Version: 6.00 Build 0)  -->
<svg version="1.1" xmlns="http://www.w3.org/2000/svg" xmlns:xlink="http://www.w3.org/1999/xlink" x="0px" y="0px"
	 viewBox="0 0 1925 500" style="enable-background:new 0 0 1925 500;" xml:space="preserve">
<style type="text/css">
	.st0{display:none;}
	.st1{display:inline;fill:#02020A;}
	.st2{display:inline;fill:#FAAE0A;}
	.st3{clip-path:url(#SVGID_2_);}
	.st4{fill:#565656;}
	.st5{fill:#AFAFAF;}
	.st6{fill:#A0A0A0;}
	.st7{fill:#404040;}
	.st8{fill:#DDDDDD;}
	.st9{fill:#8E8E8E;}
	.st10{opacity:0.95;fill:#02020A;stroke:#000000;stroke-miterlimit:10;}
	.st11{fill:url(#Shadow_8_);}
	.st12{opacity:0.66;}
	.st13{fill:#FAAE0A;}
	.st14{fill:url(#Shadow_9_);}
	.st15{opacity:0.99;fill:url(#Shadow_10_);}
	.st16{fill:url(#Shadow_11_);}
</style>
<g id="Layer_1" class="st0">
	<title>buildings-1</title>
	<polygon class="st1" points="1925,500 1925,97 1549,97 1549,219 1430,219 1430,0 1218,0 1218,500 1430,500 	"/>
	<polygon class="st1" points="914,500 914,245 702,245 702,58 548,58 548,191 274,191 274,0 0,0 0,500 274,500 	"/>
	<rect x="101.5" y="29" class="st2" width="29" height="29"/>
	<rect x="217.5" y="176.5" class="st2" width="29" height="29"/>
	<rect x="177.5" y="176.5" class="st2" width="29" height="29"/>
	<rect x="142.5" y="29" class="st2" width="29" height="29"/>
	<rect x="25" y="369" class="st2" width="29" height="29"/>
	<rect x="66" y="369" class="st2" width="29" height="29"/>
	<rect x="105" y="369" class="st2" width="29" height="29"/>
	<rect x="1309" y="190" class="st2" width="29" height="29"/>
	<rect x="1310" y="106.5" class="st2" width="29" height="29"/>
	<rect x="1389" y="190" class="st2" width="29" height="29"/>
	<rect x="1269" y="380" class="st2" width="29" height="29"/>
	<rect x="1231.5" y="380" class="st2" width="29" height="29"/>
	<rect x="1310" y="16.5" class="st2" width="29" height="29"/>
	<rect x="1349" y="16.5" class="st2" width="29" height="29"/>
	<rect x="1455.5" y="232" class="st2" width="29" height="29"/>
	<rect x="1570.5" y="116" class="st2" width="29" height="29"/>
	<rect x="1822.5" y="221" class="st2" width="29" height="29"/>
	<rect x="1671.5" y="314" class="st2" width="29" height="29"/>
	<rect x="1455.5" y="380" class="st2" width="29" height="29"/>
	<rect x="1494.5" y="380" class="st2" width="29" height="29"/>
	<rect x="437" y="210.5" class="st2" width="29" height="29"/>
	<rect x="476" y="210.5" class="st2" width="29" height="29"/>
	<rect x="560.5" y="71.5" class="st2" width="29" height="29"/>
	<rect x="599.5" y="71.5" class="st2" width="29" height="29"/>
	<rect x="599.5" y="112.5" class="st2" width="29" height="29"/>
	<rect x="638.5" y="112.5" class="st2" width="29" height="29"/>
	<rect x="560.5" y="179.5" class="st2" width="29" height="29"/>
	<rect x="599.5" y="179.5" class="st2" width="29" height="29"/>
	<rect x="599.5" y="319.5" class="st2" width="29" height="29"/>
	<rect x="667.5" y="441" class="st2" width="29" height="29"/>
	<rect x="667.5" y="179.5" class="st2" width="29" height="29"/>
	<rect x="476" y="398" class="st2" width="29" height="29"/>
</g>
<g id="Building_1">
	<g>
		<defs>
			<rect id="SVGID_1_" width="1925" height="500"/>
		</defs>
		<clipPath id="SVGID_2_">
			<use xlink:href="#SVGID_1_"  style="overflow:visible;"/>
		</clipPath>
		<g class="st3">
			<g>
				<g id="Building_Main">
					<rect x="18" y="29" class="st4" width="249" height="471"/>
					<rect y="43.5" class="st5" width="249" height="456.5"/>
					<polygon class="st6" points="267,29 18,29 0,43.5 249,43.5 					"/>
					<g>
						<g>
							<path class="st7" d="M255.5,30.3c0,0-5.5,0-14.5,0c-52.1,0-188.2,0-214.6,0c-2.1,0-3.2,0-3.2,0s-1.3,1.1-3.1,2.5
								c-1.9,1.5-4.3,3.4-6.1,4.9c-1.8,1.4-3.1,2.5-3.1,2.5s5.9,0,15.5,0c54.2,0,192.2,0,214.6,0c1.4,0,2.2,0,2.2,0s1.3-1.1,3.1-2.5
								c1.9-1.5,4.3-3.4,6.1-4.9C254.2,31.4,255.5,30.3,255.5,30.3z"/>
						</g>
					</g>
				</g>
				<g id="Front_Grooves">
					<g>
						<rect x="17" y="55.5" class="st8" width="41" height="444.5"/>
						<rect x="21" y="58" class="st9" width="37" height="442"/>
					</g>
					<g>
						<rect x="74.3" y="55.5" class="st8" width="41" height="444.5"/>
						<rect x="78.3" y="58" class="st9" width="37" height="442"/>
					</g>
					<g>
						<rect x="131.7" y="55.5" class="st8" width="41" height="444.5"/>
						<rect x="135.7" y="58" class="st9" width="37" height="442"/>
					</g>
					<g>
						<rect x="189" y="55.5" class="st8" width="41" height="444.5"/>
						<rect x="193" y="58" class="st9" width="37" height="442"/>
					</g>
				</g>
				<polygon id="Shadow" class="st10" points="18,29 0,43.5 0,500 18,500 249,500 267,500 267,29 				"/>
				<linearGradient id="Shadow_8_" gradientUnits="userSpaceOnUse" x1="133.5" y1="500" x2="133.5" y2="29">
					<stop  offset="0.1" style="stop-color:#02020A"/>
					<stop  offset="0.4287" style="stop-color:#010104;stop-opacity:0.2695"/>
					<stop  offset="0.55" style="stop-color:#000000;stop-opacity:0"/>
				</linearGradient>
				<polygon id="Shadow_1_" class="st11" points="18,29 0,43.5 0,500 18,500 249,500 267,500 267,29 				"/>
				<g id="Windows" class="st12">
					<g>
						<rect x="24.8" y="62.3" class="st13" width="12.3" height="25.5"/>
						<rect x="41.8" y="62.3" class="st13" width="12.3" height="25.5"/>
					</g>
					<g>
						<rect x="82.2" y="182.3" class="st13" width="12.3" height="25.5"/>
						<rect x="99.2" y="182.3" class="st13" width="12.3" height="25.5"/>
					</g>
					<g>
						<rect x="196.8" y="62.3" class="st13" width="12.3" height="25.5"/>
						<rect x="213.8" y="62.3" class="st13" width="12.3" height="25.5"/>
					</g>
					<g>
						<rect x="196.8" y="275" class="st13" width="12.3" height="25.5"/>
						<rect x="213.8" y="275" class="st13" width="12.3" height="25.5"/>
					</g>
					<g>
						<rect x="82.2" y="355.2" class="st13" width="12.3" height="25.5"/>
						<rect x="99.2" y="355.2" class="st13" width="12.3" height="25.5"/>
					</g>
				</g>
			</g>
			<g>
				<g id="Building_Main_1_">
					<rect x="508" y="175" class="st4" width="249" height="471"/>
					<rect x="490" y="189.5" class="st5" width="249" height="456.5"/>
					<polygon class="st6" points="757,175 508,175 490,189.5 739,189.5 					"/>
					<g>
						<g>
							<path class="st7" d="M745.5,176.3c0,0-5.5,0-14.5,0c-52.1,0-188.2,0-214.6,0c-2.1,0-3.2,0-3.2,0s-1.3,1.1-3.1,2.5
								c-1.9,1.5-4.3,3.4-6.1,4.9c-1.8,1.4-3.1,2.5-3.1,2.5s5.9,0,15.5,0c54.2,0,192.2,0,214.6,0c1.4,0,2.2,0,2.2,0s1.3-1.1,3.1-2.5
								c1.9-1.5,4.3-3.4,6.1-4.9C744.2,177.4,745.5,176.3,745.5,176.3z"/>
						</g>
					</g>
				</g>
				<g id="Front_Grooves_1_">
					<g>
						<rect x="507" y="201.5" class="st8" width="41" height="444.5"/>
						<rect x="511" y="204" class="st9" width="37" height="442"/>
					</g>
					<g>
						<rect x="564.3" y="201.5" class="st8" width="41" height="444.5"/>
						<rect x="568.3" y="204" class="st9" width="37" height="442"/>
					</g>
					<g>
						<rect x="621.7" y="201.5" class="st8" width="41" height="444.5"/>
						<rect x="625.7" y="204" class="st9" width="37" height="442"/>
					</g>
					<g>
						<rect x="679" y="201.5" class="st8" width="41" height="444.5"/>
						<rect x="683" y="204" class="st9" width="37" height="442"/>
					</g>
				</g>
				<polygon id="Shadow_3_" class="st10" points="508,175 490,189.5 490,646 508,646 739,646 757,646 757,175 				"/>
				<linearGradient id="Shadow_9_" gradientUnits="userSpaceOnUse" x1="623.5" y1="500" x2="623.5" y2="175">
					<stop  offset="0.1" style="stop-color:#02020A"/>
					<stop  offset="0.4287" style="stop-color:#010104;stop-opacity:0.2695"/>
					<stop  offset="0.55" style="stop-color:#000000;stop-opacity:0"/>
				</linearGradient>
				<polygon id="Shadow_2_" class="st14" points="508,175 490,185 490,500 508,500 739,500 757,500 757,175 				"/>
				<g id="Windows_1_" class="st12">
					<g>
						<rect x="514.8" y="208.3" class="st13" width="12.3" height="25.5"/>
						<rect x="531.8" y="208.3" class="st13" width="12.3" height="25.5"/>
					</g>
					<g>
						<rect x="572.2" y="328.3" class="st13" width="12.3" height="25.5"/>
						<rect x="589.2" y="328.3" class="st13" width="12.3" height="25.5"/>
					</g>
					<g>
						<rect x="686.8" y="208.3" class="st13" width="12.3" height="25.5"/>
						<rect x="703.8" y="208.3" class="st13" width="12.3" height="25.5"/>
					</g>
					<g>
						<rect x="686.8" y="421" class="st13" width="12.3" height="25.5"/>
						<rect x="703.8" y="421" class="st13" width="12.3" height="25.5"/>
					</g>
					<g>
						<rect x="572.2" y="501.2" class="st13" width="12.3" height="25.5"/>
						<rect x="589.2" y="501.2" class="st13" width="12.3" height="25.5"/>
					</g>
				</g>
			</g>
			<g>
				<g id="Building_Main_2_">
					<rect x="847" y="65" class="st4" width="249" height="471"/>
					<rect x="829" y="79.5" class="st5" width="249" height="456.5"/>
					<polygon class="st6" points="1096,65 847,65 829,79.5 1078,79.5 					"/>
					<g>
						<g>
							<path class="st7" d="M1084.5,66.3c0,0-5.5,0-14.5,0c-52.1,0-188.2,0-214.6,0c-2.1,0-3.2,0-3.2,0s-1.3,1.1-3.1,2.5
								c-1.9,1.5-4.3,3.4-6.1,4.9c-1.8,1.4-3.1,2.5-3.1,2.5s5.9,0,15.5,0c54.2,0,192.2,0,214.6,0c1.4,0,2.2,0,2.2,0s1.3-1.1,3.1-2.5
								c1.9-1.5,4.3-3.4,6.1-4.9C1083.2,67.4,1084.5,66.3,1084.5,66.3z"/>
						</g>
					</g>
				</g>
				<g id="Front_Grooves_2_">
					<g>
						<rect x="846" y="91.5" class="st8" width="41" height="444.5"/>
						<rect x="850" y="94" class="st9" width="37" height="442"/>
					</g>
					<g>
						<rect x="903.3" y="91.5" class="st8" width="41" height="444.5"/>
						<rect x="907.3" y="94" class="st9" width="37" height="442"/>
					</g>
					<g>
						<rect x="960.7" y="91.5" class="st8" width="41" height="444.5"/>
						<rect x="964.7" y="94" class="st9" width="37" height="442"/>
					</g>
					<g>
						<rect x="1018" y="91.5" class="st8" width="41" height="444.5"/>
						<rect x="1022" y="94" class="st9" width="37" height="442"/>
					</g>
				</g>
				<polygon id="Shadow_5_" class="st10" points="847,65 829,79.5 829,536 847,536 1078,536 1096,536 1096,65 				"/>
				<linearGradient id="Shadow_10_" gradientUnits="userSpaceOnUse" x1="962.5" y1="500" x2="962.5" y2="65">
					<stop  offset="0.1" style="stop-color:#02020A"/>
					<stop  offset="0.4222" style="stop-color:#010104;stop-opacity:0.2695"/>
					<stop  offset="0.541" style="stop-color:#000000;stop-opacity:0"/>
				</linearGradient>
				<polygon id="Shadow_4_" class="st15" points="847,65 829,78.4 829,500 847,500 1078,500 1096,500 1096,65 				"/>
				<g id="Windows_2_" class="st12">
					<g>
						<rect x="853.8" y="98.3" class="st13" width="12.3" height="25.5"/>
						<rect x="870.8" y="98.3" class="st13" width="12.3" height="25.5"/>
					</g>
					<g>
						<rect x="911.2" y="218.3" class="st13" width="12.3" height="25.5"/>
						<rect x="928.2" y="218.3" class="st13" width="12.3" height="25.5"/>
					</g>
					<g>
						<rect x="1025.8" y="98.3" class="st13" width="12.3" height="25.5"/>
						<rect x="1042.8" y="98.3" class="st13" width="12.3" height="25.5"/>
					</g>
					<g>
						<rect x="1025.8" y="311" class="st13" width="12.3" height="25.5"/>
						<rect x="1042.8" y="311" class="st13" width="12.3" height="25.5"/>
					</g>
					<g>
						<rect x="911.2" y="391.2" class="st13" width="12.3" height="25.5"/>
						<rect x="928.2" y="391.2" class="st13" width="12.3" height="25.5"/>
					</g>
				</g>
			</g>
			<g>
				<g id="Building_Main_3_">
					<rect x="1423.4" y="29" class="st4" width="249" height="471"/>
					<rect x="1405.4" y="43.5" class="st5" width="249" height="456.5"/>
					<polygon class="st6" points="1672.4,29 1423.4,29 1405.4,43.5 1654.4,43.5 					"/>
					<g>
						<g>
							<path class="st7" d="M1660.9,30.3c0,0-5.5,0-14.5,0c-52.1,0-188.2,0-214.6,0c-2.1,0-3.2,0-3.2,0s-1.3,1.1-3.1,2.5
								c-1.9,1.5-4.3,3.4-6.1,4.9c-1.8,1.4-3.1,2.5-3.1,2.5s5.9,0,15.5,0c54.2,0,192.2,0,214.6,0c1.4,0,2.2,0,2.2,0s1.3-1.1,3.1-2.5
								c1.9-1.5,4.3-3.4,6.1-4.9C1659.6,31.4,1660.9,30.3,1660.9,30.3z"/>
						</g>
					</g>
				</g>
				<g id="Front_Grooves_3_">
					<g>
						<rect x="1422.4" y="55.5" class="st8" width="41" height="444.5"/>
						<rect x="1426.4" y="58" class="st9" width="37" height="442"/>
					</g>
					<g>
						<rect x="1479.7" y="55.5" class="st8" width="41" height="444.5"/>
						<rect x="1483.7" y="58" class="st9" width="37" height="442"/>
					</g>
					<g>
						<rect x="1537" y="55.5" class="st8" width="41" height="444.5"/>
						<rect x="1541" y="58" class="st9" width="37" height="442"/>
					</g>
					<g>
						<rect x="1594.4" y="55.5" class="st8" width="41" height="444.5"/>
						<rect x="1598.4" y="58" class="st9" width="37" height="442"/>
					</g>
				</g>
				<polygon id="Shadow_7_" class="st10" points="1423.4,29 1405.4,43.5 1405.4,500 1423.4,500 1654.4,500 1672.4,500 1672.4,29 
									"/>
				<linearGradient id="Shadow_11_" gradientUnits="userSpaceOnUse" x1="1538.8746" y1="500" x2="1538.8746" y2="29">
					<stop  offset="0.1" style="stop-color:#02020A"/>
					<stop  offset="0.4222" style="stop-color:#010104;stop-opacity:0.2695"/>
					<stop  offset="0.541" style="stop-color:#000000;stop-opacity:0"/>
				</linearGradient>
				<polygon id="Shadow_6_" class="st16" points="1423.4,29 1405.4,43.5 1405.4,500 1423.4,500 1654.4,500 1672.4,500 1672.4,29 
									"/>
				<g id="Windows_3_" class="st12">
					<g>
						<rect x="1430.2" y="62.3" class="st13" width="12.3" height="25.5"/>
						<rect x="1447.2" y="62.3" class="st13" width="12.3" height="25.5"/>
					</g>
					<g>
						<rect x="1487.5" y="182.3" class="st13" width="12.3" height="25.5"/>
						<rect x="1504.5" y="182.3" class="st13" width="12.3" height="25.5"/>
					</g>
					<g>
						<rect x="1602.2" y="62.3" class="st13" width="12.3" height="25.5"/>
						<rect x="1619.2" y="62.3" class="st13" width="12.3" height="25.5"/>
					</g>
					<g>
						<rect x="1602.2" y="275" class="st13" width="12.3" height="25.5"/>
						<rect x="1619.2" y="275" class="st13" width="12.3" height="25.5"/>
					</g>
					<g>
						<rect x="1487.5" y="355.2" class="st13" width="12.3" height="25.5"/>
						<rect x="1504.5" y="355.2" class="st13" width="12.3" height="25.5"/>
					</g>
				</g>
			</g>
		</g>
	</g>
</g>
<g id="Layer_3">
</g>
</svg>
