<svg id="Building_1" data-name="Building 1" xmlns="http://www.w3.org/2000/svg" xmlns:xlink="http://www.w3.org/1999/xlink" viewBox="0 0 1673.37 618"><defs><style>.cls-1{fill:none;}.cls-2{clip-path:url(#clip-path);}.cls-3{fill:#565656;}.cls-4{fill:#afafaf;}.cls-5{fill:#a0a0a0;}.cls-6{fill:#404040;}.cls-7{fill:#ddd;}.cls-8{fill:#8e8e8e;}.cls-9{fill:#02020a;stroke:#000;stroke-miterlimit:10;opacity:0.95;}.cls-10{fill:url(#linear-gradient);}.cls-11{opacity:0.66;}.cls-12{fill:#faae0a;}.cls-13{fill:url(#linear-gradient-2);}.cls-14{opacity:0.99;fill:url(#linear-gradient-3);}.cls-15{fill:url(#linear-gradient-4);}</style><clipPath id="clip-path" transform="translate(0.5 -28.5)"><rect class="cls-1" width="1925" height="500"/></clipPath><linearGradient id="linear-gradient" x1="134" y1="471.5" x2="134" y2="0.5" gradientUnits="userSpaceOnUse"><stop offset="0.1" stop-color="#02020a"/><stop offset="0.43" stop-color="#010104" stop-opacity="0.39"/><stop offset="0.55" stop-opacity="0"/></linearGradient><linearGradient id="linear-gradient-2" x1="624" x2="624" y2="146.5" xlink:href="#linear-gradient"/><linearGradient id="linear-gradient-3" x1="963" y1="471.5" x2="963" y2="36.5" gradientUnits="userSpaceOnUse"><stop offset="0.1" stop-color="#02020a"/><stop offset="0.42" stop-color="#010104" stop-opacity="0.39"/><stop offset="0.54" stop-opacity="0"/></linearGradient><linearGradient id="linear-gradient-4" x1="1539.37" x2="1539.37" y2="0.5" xlink:href="#linear-gradient-3"/></defs><title>buildings-303</title><g class="cls-2"><g id="Building_Main" data-name="Building Main"><rect class="cls-3" x="18.5" y="0.5" width="249" height="471"/><rect class="cls-4" x="0.5" y="15" width="249" height="456.5"/><polygon class="cls-5" points="267.5 0.5 18.5 0.5 0.5 15 249.5 15 267.5 0.5"/><path class="cls-6" d="M255.5,30.3H23.28l-3.07,2.48-6.14,4.94L11,40.2H243.22l3.07-2.48,6.14-4.94Z" transform="translate(0.5 -28.5)"/></g><g id="Front_Grooves" data-name="Front Grooves"><rect class="cls-7" x="17.5" y="27" width="41" height="444.5"/><rect class="cls-8" x="21.5" y="29.5" width="37" height="442"/><rect class="cls-7" x="74.83" y="27" width="41" height="444.5"/><rect class="cls-8" x="78.83" y="29.5" width="37" height="442"/><rect class="cls-7" x="132.17" y="27" width="41" height="444.5"/><rect class="cls-8" x="136.17" y="29.5" width="37" height="442"/><rect class="cls-7" x="189.5" y="27" width="41" height="444.5"/><rect class="cls-8" x="193.5" y="29.5" width="37" height="442"/></g><polygon id="Shadow" class="cls-9" points="18.5 0.5 0.5 15 0.5 471.5 18.5 471.5 249.5 471.5 267.5 471.5 267.5 0.5 18.5 0.5"/><polygon id="Shadow-2" data-name="Shadow" class="cls-10" points="18.5 0.5 0.5 15 0.5 471.5 18.5 471.5 249.5 471.5 267.5 471.5 267.5 0.5 18.5 0.5"/><g id="Windows" class="cls-11"><rect class="cls-12" x="25.33" y="33.83" width="12.33" height="25.5"/><rect class="cls-12" x="42.33" y="33.83" width="12.33" height="25.5"/><rect class="cls-12" x="82.67" y="153.83" width="12.33" height="25.5"/><rect class="cls-12" x="99.67" y="153.83" width="12.33" height="25.5"/><rect class="cls-12" x="197.33" y="33.83" width="12.33" height="25.5"/><rect class="cls-12" x="214.33" y="33.83" width="12.33" height="25.5"/><rect class="cls-12" x="197.33" y="246.5" width="12.33" height="25.5"/><rect class="cls-12" x="214.33" y="246.5" width="12.33" height="25.5"/><rect class="cls-12" x="82.67" y="326.67" width="12.33" height="25.5"/><rect class="cls-12" x="99.67" y="326.67" width="12.33" height="25.5"/></g><g id="Building_Main-2" data-name="Building Main"><rect class="cls-3" x="508.5" y="146.5" width="249" height="471"/><rect class="cls-4" x="490.5" y="161" width="249" height="456.5"/><polygon class="cls-5" points="757.5 146.5 508.5 146.5 490.5 161 739.5 161 757.5 146.5"/><path class="cls-6" d="M745.5,176.3H513.28l-3.07,2.48-6.14,4.94L501,186.2H733.22l3.07-2.48,6.14-4.94Z" transform="translate(0.5 -28.5)"/></g><g id="Front_Grooves-2" data-name="Front Grooves"><rect class="cls-7" x="507.5" y="173" width="41" height="444.5"/><rect class="cls-8" x="511.5" y="175.5" width="37" height="442"/><rect class="cls-7" x="564.83" y="173" width="41" height="444.5"/><rect class="cls-8" x="568.83" y="175.5" width="37" height="442"/><rect class="cls-7" x="622.17" y="173" width="41" height="444.5"/><rect class="cls-8" x="626.17" y="175.5" width="37" height="442"/><rect class="cls-7" x="679.5" y="173" width="41" height="444.5"/><rect class="cls-8" x="683.5" y="175.5" width="37" height="442"/></g><polygon id="Shadow-3" data-name="Shadow" class="cls-9" points="508.5 146.5 490.5 161 490.5 617.5 508.5 617.5 739.5 617.5 757.5 617.5 757.5 146.5 508.5 146.5"/><polygon id="Shadow-4" data-name="Shadow" class="cls-13" points="508.5 146.5 490.5 156.5 490.5 471.5 508.5 471.5 739.5 471.5 757.5 471.5 757.5 146.5 508.5 146.5"/><g id="Windows-2" data-name="Windows" class="cls-11"><rect class="cls-12" x="515.33" y="179.83" width="12.33" height="25.5"/><rect class="cls-12" x="532.33" y="179.83" width="12.33" height="25.5"/><rect class="cls-12" x="572.67" y="299.83" width="12.33" height="25.5"/><rect class="cls-12" x="589.67" y="299.83" width="12.33" height="25.5"/><rect class="cls-12" x="687.33" y="179.83" width="12.33" height="25.5"/><rect class="cls-12" x="704.33" y="179.83" width="12.33" height="25.5"/><rect class="cls-12" x="687.33" y="392.5" width="12.33" height="25.5"/><rect class="cls-12" x="704.33" y="392.5" width="12.33" height="25.5"/><rect class="cls-12" x="572.67" y="472.67" width="12.33" height="25.5"/><rect class="cls-12" x="589.67" y="472.67" width="12.33" height="25.5"/></g><g id="Building_Main-3" data-name="Building Main"><rect class="cls-3" x="847.5" y="36.5" width="249" height="471"/><rect class="cls-4" x="829.5" y="51" width="249" height="456.5"/><polygon class="cls-5" points="1096.5 36.5 847.5 36.5 829.5 51 1078.5 51 1096.5 36.5"/><path class="cls-6" d="M1084.5,66.3H852.28l-3.07,2.48-6.14,4.94L840,76.2h232.22l3.07-2.48,6.14-4.94Z" transform="translate(0.5 -28.5)"/></g><g id="Front_Grooves-3" data-name="Front Grooves"><rect class="cls-7" x="846.5" y="63" width="41" height="444.5"/><rect class="cls-8" x="850.5" y="65.5" width="37" height="442"/><rect class="cls-7" x="903.83" y="63" width="41" height="444.5"/><rect class="cls-8" x="907.83" y="65.5" width="37" height="442"/><rect class="cls-7" x="961.17" y="63" width="41" height="444.5"/><rect class="cls-8" x="965.17" y="65.5" width="37" height="442"/><rect class="cls-7" x="1018.5" y="63" width="41" height="444.5"/><rect class="cls-8" x="1022.5" y="65.5" width="37" height="442"/></g><polygon id="Shadow-5" data-name="Shadow" class="cls-9" points="847.5 36.5 829.5 51 829.5 507.5 847.5 507.5 1078.5 507.5 1096.5 507.5 1096.5 36.5 847.5 36.5"/><polygon id="Shadow-6" data-name="Shadow" class="cls-14" points="847.5 36.5 829.5 49.89 829.5 471.5 847.5 471.5 1078.5 471.5 1096.5 471.5 1096.5 36.5 847.5 36.5"/><g id="Windows-3" data-name="Windows" class="cls-11"><rect class="cls-12" x="854.33" y="69.83" width="12.33" height="25.5"/><rect class="cls-12" x="871.33" y="69.83" width="12.33" height="25.5"/><rect class="cls-12" x="911.67" y="189.83" width="12.33" height="25.5"/><rect class="cls-12" x="928.67" y="189.83" width="12.33" height="25.5"/><rect class="cls-12" x="1026.33" y="69.83" width="12.33" height="25.5"/><rect class="cls-12" x="1043.33" y="69.83" width="12.33" height="25.5"/><rect class="cls-12" x="1026.33" y="282.5" width="12.33" height="25.5"/><rect class="cls-12" x="1043.33" y="282.5" width="12.33" height="25.5"/><rect class="cls-12" x="911.67" y="362.67" width="12.33" height="25.5"/><rect class="cls-12" x="928.67" y="362.67" width="12.33" height="25.5"/></g><g id="Building_Main-4" data-name="Building Main"><rect class="cls-3" x="1423.87" y="0.5" width="249" height="471"/><rect class="cls-4" x="1405.87" y="15" width="249" height="456.5"/><polygon class="cls-5" points="1672.88 0.5 1423.88 0.5 1405.88 15 1654.88 15 1672.88 0.5"/><path class="cls-6" d="M1660.87,30.3H1428.66l-3.07,2.48-6.15,4.94-3.07,2.48h232.22l3.07-2.48,6.14-4.94Z" transform="translate(0.5 -28.5)"/></g><g id="Front_Grooves-4" data-name="Front Grooves"><rect class="cls-7" x="1422.87" y="27" width="41" height="444.5"/><rect class="cls-8" x="1426.87" y="29.5" width="37" height="442"/><rect class="cls-7" x="1480.21" y="27" width="41" height="444.5"/><rect class="cls-8" x="1484.21" y="29.5" width="37" height="442"/><rect class="cls-7" x="1537.54" y="27" width="41" height="444.5"/><rect class="cls-8" x="1541.54" y="29.5" width="37" height="442"/><rect class="cls-7" x="1594.87" y="27" width="41" height="444.5"/><rect class="cls-8" x="1598.87" y="29.5" width="37" height="442"/></g><polygon id="Shadow-7" data-name="Shadow" class="cls-9" points="1423.88 0.5 1405.88 15 1405.88 471.5 1423.88 471.5 1654.88 471.5 1672.88 471.5 1672.88 0.5 1423.88 0.5"/><polygon id="Shadow-8" data-name="Shadow" class="cls-15" points="1423.88 0.5 1405.88 15 1405.88 471.5 1423.88 471.5 1654.88 471.5 1672.88 471.5 1672.88 0.5 1423.88 0.5"/><g id="Windows-4" data-name="Windows" class="cls-11"><rect class="cls-12" x="1430.71" y="33.83" width="12.33" height="25.5"/><rect class="cls-12" x="1447.71" y="33.83" width="12.33" height="25.5"/><rect class="cls-12" x="1488.04" y="153.83" width="12.33" height="25.5"/><rect class="cls-12" x="1505.04" y="153.83" width="12.33" height="25.5"/><rect class="cls-12" x="1602.71" y="33.83" width="12.33" height="25.5"/><rect class="cls-12" x="1619.71" y="33.83" width="12.33" height="25.5"/><rect class="cls-12" x="1602.71" y="246.5" width="12.33" height="25.5"/><rect class="cls-12" x="1619.71" y="246.5" width="12.33" height="25.5"/><rect class="cls-12" x="1488.04" y="326.67" width="12.33" height="25.5"/><rect class="cls-12" x="1505.04" y="326.67" width="12.33" height="25.5"/></g></g></svg>