<svg id="Layer_1" data-name="Layer 1" xmlns="http://www.w3.org/2000/svg" viewBox="0 0 1440.82 173.74"><defs><style>.cls-1{fill:#302144;}</style></defs><title>clouds-2</title><path class="cls-1" d="M1477.93,96.38c0-1.76-1.23-3.42-3.44-4.93a4.71,4.71,0,0,0,1.33-3.11c0-3.52-5-6.69-12.89-8.92-2.77-4.65-14.31-8.4-29.32-9.65-7.17-3.56-20.23-5.95-35.16-5.95a110.19,110.19,0,0,0-27.08,3.05c-17.64.66-31.81,4.66-35.16,9.82-5.24,2.06-8.36,4.64-8.36,7.42a3.57,3.57,0,0,0,.09.8c-3.81,1.86-6,4-6,6.39,0,6.77,18.36,12.26,41,12.26,2.5,0,5-.06,7.32-.19,7.41,3.18,19.73,5.27,33.69,5.27a126.43,126.43,0,0,0,16.49-1,126.2,126.2,0,0,0,16.49,1C1459.57,108.64,1477.93,103.15,1477.93,96.38Z" transform="translate(-301.16 -16.13)"/><path class="cls-1" d="M1738.53,125.36a4.7,4.7,0,0,0,1.33-3.1c0-3.52-4.95-6.69-12.89-8.93-2.77-4.65-14.3-8.39-29.31-9.65-7.18-3.56-20.24-6-35.17-6a110.06,110.06,0,0,0-27.07,3.06c-15.08.56-27.6,3.57-33,7.65-5.37-2.28-13.26-4-22.47-4.76-7.17-3.56-20.24-6-35.16-6a110.09,110.09,0,0,0-27.08,3.06c-17.65.65-31.82,4.66-35.16,9.82-5.25,2.06-8.37,4.63-8.37,7.42a4.16,4.16,0,0,0,.09.79c-3.81,1.87-6,4.05-6,6.4,0,6.77,18.36,12.26,41,12.26,2.5,0,5-.07,7.33-.2,7.4,3.18,19.73,5.27,33.68,5.27a128,128,0,0,0,16.49-1,128.28,128.28,0,0,0,16.49,1c14.18,0,26.68-2.15,34-5.42,3.11.22,6.36.35,9.7.35,2.5,0,5-.07,7.32-.2,7.41,3.18,19.74,5.27,33.69,5.27a128.16,128.16,0,0,0,16.49-1,128.16,128.16,0,0,0,16.49,1c22.65,0,41-5.49,41-12.26C1742,128.54,1740.75,126.87,1738.53,125.36Z" transform="translate(-301.16 -16.13)"/><path class="cls-1" d="M1027.3,143.68a5.82,5.82,0,0,0,1.39-3.62c0-4.11-5.2-7.81-13.53-10.41-2.9-5.43-15-9.8-30.76-11.26-7.52-4.16-21.23-6.94-36.89-6.94A104.85,104.85,0,0,0,919.09,115a106.67,106.67,0,0,0-19.22,2.46c-4.43-7.17-15.46-12.77-29.32-14.81-7.53-6.58-21.23-11-36.89-11-10.89,0-20.84,2.13-28.42,5.64-18.52,1.2-33.38,8.6-36.89,18.13-5.51,3.81-8.78,8.55-8.78,13.7a11.84,11.84,0,0,0,.09,1.47c-3.43,2.95-5.61,6.35-6.15,10a108.15,108.15,0,0,0-26.44-3,104.77,104.77,0,0,0-28.41,3.56c-18.52.77-33.39,5.44-36.9,11.46-5.51,2.4-8.78,5.4-8.78,8.65a4.73,4.73,0,0,0,.1.93c-4,2.17-6.31,4.73-6.31,7.46,0,7.9,19.27,14.3,43,14.3q3.94,0,7.69-.23c7.77,3.72,20.7,6.15,35.35,6.15a121.23,121.23,0,0,0,17.3-1.2,121,121,0,0,0,17.3,1.2c23.77,0,43-6.4,43-14.3,0-2-1.29-4-3.61-5.75a6.37,6.37,0,0,0,1.25-2.51c7.85,4.38,19,7.12,31.31,7.12a77.38,77.38,0,0,0,17.3-1.9,77.54,77.54,0,0,0,17.31,1.9c19.88,0,36.61-7.1,41.54-16.74.79,0,1.58-.06,2.36-.11,7.77,3.72,20.7,6.15,35.35,6.15a121.23,121.23,0,0,0,17.3-1.2,121,121,0,0,0,17.3,1.2c23.76,0,43-6.4,43-14.3C1030.91,147.38,1029.62,145.44,1027.3,143.68Z" transform="translate(-301.16 -16.13)"/><path class="cls-1" d="M543.35,83.43a4.8,4.8,0,0,0,1.33-3.11c0-3.52-5-6.69-12.9-8.93-2.76-4.65-14.3-8.39-29.31-9.65a53.7,53.7,0,0,0-13.68-4.12c-.9-5.46-5.61-10.33-12.72-13.88-2.77-8.23-14.3-14.86-29.31-17.08-7.18-6.31-20.24-10.53-35.17-10.53-10.37,0-19.85,2-27.07,5.41-16,1.05-29.14,7-33.93,14.9-17.64.66-31.8,4.66-35.15,9.82-5.25,2.06-8.36,4.63-8.36,7.42a3.57,3.57,0,0,0,.09.8c-3.81,1.86-6,4.05-6,6.39,0,6.37,16.24,11.6,37,12.2,6.16,7.87,20.8,13.41,37.9,13.41,2.5,0,4.95-.12,7.32-.34,7.41,5.63,19.74,9.32,33.69,9.32,1.92,0,3.8-.09,5.65-.23,2.91.2,5.94.31,9.06.31q3.75,0,7.32-.2c7.41,3.19,19.73,5.27,33.69,5.27a128,128,0,0,0,16.48-1,128.28,128.28,0,0,0,16.49,1c22.65,0,41-5.49,41-12.26C546.79,86.6,545.56,84.93,543.35,83.43Z" transform="translate(-301.16 -16.13)"/></svg>