<svg id="Layer_1" data-name="Layer 1" xmlns="http://www.w3.org/2000/svg" viewBox="0 0 1808.92 135.5"><defs><style>.cls-1{fill:#4b3a5e;}</style></defs><title>clouds-1</title><path class="cls-1" d="M151.35,67.33c0-1.45-1-2.82-2.85-4.07a3.85,3.85,0,0,0,1.1-2.56c0-2.91-4.09-5.52-10.65-7.37-2.28-3.84-11.8-6.93-24.2-8-5.92-2.94-16.7-4.91-29-4.91A91.27,91.27,0,0,0,63.37,43c-14.57.54-26.27,3.85-29,8.11-4.34,1.7-6.91,3.83-6.91,6.13a3.7,3.7,0,0,0,.07.66c-3.14,1.53-5,3.34-5,5.27,0,5.59,15.16,10.12,33.86,10.12q3.1,0,6.05-.16c6.11,2.63,16.29,4.35,27.81,4.35a104.8,104.8,0,0,0,13.61-.85,105,105,0,0,0,13.62.85C136.19,77.45,151.35,72.92,151.35,67.33Z" transform="translate(-22.54 -40.45)"/><path class="cls-1" d="M366.5,91.26a3.85,3.85,0,0,0,1.1-2.56c0-2.91-4.09-5.52-10.65-7.37-2.28-3.84-11.8-6.93-24.2-8-5.92-2.94-16.7-4.91-29-4.91A91.27,91.27,0,0,0,281.37,71c-12.46.47-22.79,3-27.26,6.32-4.43-1.88-11-3.29-18.56-3.93-5.92-2.94-16.7-4.91-29-4.91A91.33,91.33,0,0,0,184.17,71c-14.57.54-26.27,3.85-29,8.11-4.33,1.7-6.91,3.83-6.91,6.13a3,3,0,0,0,.08.66c-3.15,1.53-5,3.34-5,5.27,0,5.59,15.15,10.12,33.85,10.12q3.11,0,6.05-.16c6.11,2.63,16.29,4.35,27.81,4.35a105,105,0,0,0,13.62-.85,104.8,104.8,0,0,0,13.61.85c11.7,0,22-1.77,28.1-4.47,2.57.18,5.25.28,8,.28q3.11,0,6.05-.16c6.11,2.63,16.29,4.35,27.81,4.35a104.8,104.8,0,0,0,13.61-.85,105,105,0,0,0,13.62.85c18.7,0,33.86-4.53,33.86-10.12C369.35,93.88,368.33,92.51,366.5,91.26Z" transform="translate(-22.54 -40.45)"/><path class="cls-1" d="M1226.71,95.06a4.78,4.78,0,0,0,1.16-3c0-3.39-4.3-6.44-11.18-8.6-2.39-4.47-12.38-8.08-25.39-9.29-6.21-3.43-17.53-5.73-30.46-5.73a86.33,86.33,0,0,0-23.46,2.94,87.84,87.84,0,0,0-15.87,2c-3.66-5.92-12.76-10.54-24.21-12.22-6.21-5.44-17.53-9.07-30.46-9.07a57,57,0,0,0-23.46,4.65c-15.29,1-27.56,7.11-30.46,15-4.55,3.15-7.25,7.07-7.25,11.32a9.71,9.71,0,0,0,.08,1.21c-2.84,2.44-4.63,5.24-5.08,8.25A89.32,89.32,0,0,0,978.84,90a86.3,86.3,0,0,0-23.46,3c-15.29.62-27.56,4.48-30.46,9.45-4.55,2-7.25,4.46-7.25,7.15a4,4,0,0,0,.08.77c-3.3,1.79-5.21,3.9-5.21,6.15,0,6.52,15.91,11.81,35.53,11.81q3.25,0,6.35-.19c6.41,3.07,17.09,5.08,29.18,5.08a99.53,99.53,0,0,0,14.29-1,99.29,99.29,0,0,0,14.28,1c19.62,0,35.53-5.29,35.53-11.81,0-1.69-1.07-3.29-3-4.74a5.36,5.36,0,0,0,1-2.08c6.48,3.62,15.66,5.88,25.85,5.88a63.91,63.91,0,0,0,14.29-1.57,63.75,63.75,0,0,0,14.28,1.57c16.42,0,30.23-5.86,34.3-13.82.65,0,1.31,0,2-.09,6.41,3.07,17.09,5.08,29.18,5.08a99.53,99.53,0,0,0,14.29-1,99.29,99.29,0,0,0,14.28,1c19.62,0,35.53-5.29,35.53-11.81C1229.7,98.12,1228.63,96.52,1226.71,95.06Z" transform="translate(-22.54 -40.45)"/><path class="cls-1" d="M1828.61,72.76a3.85,3.85,0,0,0,1.1-2.56c0-2.91-4.09-5.52-10.64-7.37-2.29-3.84-11.81-6.93-24.2-8-5.93-2.94-16.71-4.91-29-4.91a91.36,91.36,0,0,0-22.36,2.52c-14.57.54-26.27,3.85-29,8.11-4.33,1.7-6.91,3.83-6.91,6.13a3,3,0,0,0,.08.66c-2.65,1.29-4.35,2.78-4.82,4.37-6.19-2-15.08-3.29-25-3.29A91.36,91.36,0,0,0,1655.48,71c-14.57.54-26.27,3.85-29,8.11-4.33,1.7-6.91,3.83-6.91,6.13a3,3,0,0,0,.08.66c-3.15,1.53-5,3.34-5,5.27,0,5.59,15.16,10.12,33.86,10.12,2.06,0,4.08-.05,6-.16,6.12,2.63,16.29,4.35,27.81,4.35a105,105,0,0,0,13.62-.85,104.8,104.8,0,0,0,13.61.85c18.7,0,33.86-4.53,33.86-10.12,0-1.45-1-2.82-2.85-4.07a3.85,3.85,0,0,0,1.1-2.56c0-2.22-2.4-4.28-6.46-6h1.27c2.06,0,4.08-.05,6-.16,6.12,2.63,16.29,4.35,27.81,4.35A105,105,0,0,0,1784,86.1a104.8,104.8,0,0,0,13.61.85c18.7,0,33.86-4.53,33.86-10.12C1831.46,75.38,1830.44,74,1828.61,72.76Z" transform="translate(-22.54 -40.45)"/><path class="cls-1" d="M1590.61,161.76a3.85,3.85,0,0,0,1.1-2.56c0-2.91-4.09-5.52-10.64-7.37-2.29-3.84-11.81-6.93-24.2-8a44.85,44.85,0,0,0-11.3-3.4c-.74-4.51-4.63-8.53-10.5-11.46-2.29-6.8-11.81-12.27-24.2-14.1-5.93-5.21-16.71-8.7-29-8.7a53.91,53.91,0,0,0-22.36,4.47c-13.22.86-24,5.77-28,12.3-14.57.55-26.26,3.85-29,8.11-4.33,1.7-6.91,3.83-6.91,6.13a3,3,0,0,0,.08.66c-3.15,1.53-5,3.34-5,5.27,0,5.26,13.41,9.58,30.56,10.08,5.09,6.49,17.18,11.07,31.3,11.07,2.06,0,4.08-.1,6-.29,6.12,4.66,16.29,7.7,27.81,7.7,1.59,0,3.14-.07,4.67-.19,2.4.17,4.9.25,7.48.25,2.06,0,4.08,0,6-.16,6.12,2.63,16.29,4.35,27.81,4.35a105,105,0,0,0,13.62-.85,104.8,104.8,0,0,0,13.61.85c18.7,0,33.86-4.53,33.86-10.12C1593.46,164.38,1592.44,163,1590.61,161.76Z" transform="translate(-22.54 -40.45)"/></svg>