<svg id="Layer_1" data-name="Layer 1" xmlns="http://www.w3.org/2000/svg" viewBox="0 0 89.7 200"><defs><style>.cls-1{fill:#030106;}</style></defs><title>miss_might</title><path class="cls-1" d="M214.83,92.83a30,30,0,0,0,0-6.75,5.56,5.56,0,0,0-2-3.16,9.39,9.39,0,0,0,0-2.75,2.8,2.8,0,0,0-.75-1.42V0h-10V86.5s-2.75,4.92-2.66,5.67a4.65,4.65,0,0,0,.58,1.58c-1.25-.5-3.92,2-5.08,2.75a29.49,29.49,0,0,0-3.84,4.17s-1.83-1.75-2.91-2.84-4.09-5.25-4.09-5.25-1.08-3.16-1.25-3.91a1.75,1.75,0,0,0-1-1.09l-3.41-1.25.08-1s2.75-1.5,3.5-1.83,5.58-3.92,6.5-5.25,2.58-9.33,2.58-10.58-4.58-6.75-4.58-6.75v-5c0-1.17-3.5-5.59-4.5-6.34s-7.33-2.41-11.33-2.41S158.5,52,158.5,52c-.58.92-1,5.58-.83,9.25a65.66,65.66,0,0,0,1.91,10.25s-1.08,5.25-.5,7.33,4.09,3.09,4.09,3.09l-.34,1.83L159.17,85l-.67,2.33a25.05,25.05,0,0,1-2,1.67c-1.5,1.17-1.67,4.33-2.08,6.83s-1.59,8.09-1.59,8.09-2.16.25-3.08.41-3.17,2-8.75,7.92-5.25,8.67-5.25,8.67a7.58,7.58,0,0,0-2.08.33c-1,.33-3.5,3.25-4,4.42a9.31,9.31,0,0,0,.25,5.41,9.64,9.64,0,0,0,3.91,4.67c1.67.83,3.09-1.33,3.09-1.33s2.66,1.75,3.66,1.75,2.09-1.09,3.5-2.59a12.37,12.37,0,0,0,2.17-4.58,8.23,8.23,0,0,0,1.92-.42,13.38,13.38,0,0,0,2-1s-1.59,4.84-2.59,7.75-2.41,11-2.41,11a18.81,18.81,0,0,0-3.67,3.09c-1.42,1.66-2.92,15.5-2.92,15.5-.66,6.83,1.09,18,1.09,18l-2.42.83s-1.83,1.42-6.25,5.25-5.58,11-5.58,11h60.91l-.16-3.58a145.28,145.28,0,0,0-3.09-23.59,99.34,99.34,0,0,0-7.91-21.33,92,92,0,0,0,.75-12.42c-.25-4.5-.67-11-.84-12.41s1.34-3,1.67-5a18.93,18.93,0,0,0,.08-4.34,16.36,16.36,0,0,1-.16-4.83,17.22,17.22,0,0,1,1.33-4.42l1.42-.25a2.17,2.17,0,0,0,1.75-1.33,34.56,34.56,0,0,1-.67-5.5c-.09-2,.56-1.94.56-1.94s.77.69,1.44,4.48a9.52,9.52,0,0,0,2.5,5.38,7,7,0,0,0-1.58,2.66c-.25,1.25,5.08,4.17,9.33,4.5s8.67-7.56,8.67-7.56l-.5,91.48H212V100a35.57,35.57,0,0,0,3-5.17C215.38,93.58,214.58,93.58,214.83,92.83Zm-49.41,88.25s-.59.84-1.84,2.84-3.58,6.91-3.58,6.91-1.92-17.41-2.83-23.25-3.5-17.25-3.5-17.25a48.1,48.1,0,0,0,4.66-9.58,35.75,35.75,0,0,1,4-8.33s.92,4.58,1.42,9.75a57.67,57.67,0,0,0,1.67,9.25,46.85,46.85,0,0,0-2.09,13.33C163.42,171.5,165.42,181.08,165.42,181.08Z" transform="translate(-125.42)"/></svg>