<svg id="Layer_1" data-name="Layer 1" xmlns="http://www.w3.org/2000/svg" xmlns:xlink="http://www.w3.org/1999/xlink" viewBox="0 0 888.67 187.02"><defs><style>.cls-1{fill:#395bbc;}.cls-2{fill:url(#linear-gradient);}.cls-3{fill:#ffb9ae;stroke:#231f20;stroke-miterlimit:10;stroke-width:2px;}.cls-4{fill:url(#linear-gradient-2);}.cls-5{fill:url(#linear-gradient-3);}.cls-6{fill:url(#linear-gradient-4);}.cls-7{fill:url(#linear-gradient-5);}.cls-8{fill:url(#linear-gradient-6);}.cls-9{fill:url(#linear-gradient-7);}.cls-10{fill:url(#linear-gradient-8);}.cls-11{fill:url(#linear-gradient-9);}</style><linearGradient id="linear-gradient" x1="805.75" y1="91.76" x2="805.75" y2="23.98" gradientUnits="userSpaceOnUse"><stop offset="0" stop-color="#fff"/><stop offset="0.14" stop-color="#fffcfb"/><stop offset="0.27" stop-color="#fef1f1"/><stop offset="0.39" stop-color="#fce0de"/><stop offset="0.51" stop-color="#fac8c5"/><stop offset="0.63" stop-color="#f7a8a4"/><stop offset="0.74" stop-color="#f4827b"/><stop offset="0.85" stop-color="#ef544b"/><stop offset="0.96" stop-color="#eb2115"/><stop offset="1" stop-color="#e90d00"/></linearGradient><linearGradient id="linear-gradient-2" x1="711.52" y1="103.06" x2="711.52" y2="25.06" xlink:href="#linear-gradient"/><linearGradient id="linear-gradient-3" x1="628.37" y1="108.84" x2="628.37" y2="26.12" xlink:href="#linear-gradient"/><linearGradient id="linear-gradient-4" x1="567.66" y1="115.17" x2="567.66" y2="27.49" xlink:href="#linear-gradient"/><linearGradient id="linear-gradient-5" x1="476.36" y1="129.29" x2="476.36" y2="27.79" xlink:href="#linear-gradient"/><linearGradient id="linear-gradient-6" x1="332.4" y1="142.01" x2="332.4" y2="30.55" xlink:href="#linear-gradient"/><linearGradient id="linear-gradient-7" x1="255.04" y1="150.54" x2="255.04" y2="31.71" xlink:href="#linear-gradient"/><linearGradient id="linear-gradient-8" x1="201.27" y1="155.45" x2="201.27" y2="33.11" xlink:href="#linear-gradient"/><linearGradient id="linear-gradient-9" x1="110.82" y1="169.5" x2="110.82" y2="33.8" xlink:href="#linear-gradient"/></defs><title>miss_might_logo</title><path id="Background" class="cls-1" d="M19,47H907.67S303,140.33,184.33,205Z" transform="translate(-19 -17.98)"/><g id="Miss_Might" data-name="Miss Might"><path class="cls-2" d="M816.72,36.92,805,60.1,790.82,88.29a3,3,0,0,1-2.36,1.64l-16.59,1.81a3,3,0,0,1-3-4.3Q781,62.59,793.26,37.72l-16.67.56A3,3,0,0,1,773.78,34l3.53-7.37A3,3,0,0,1,780,24.91l19.72-.31,23.41-.36L839.92,24a3,3,0,0,1,2.72,4.38l-3.24,6.25a3,3,0,0,1-2.57,1.63Z" transform="translate(-19 -17.98)"/><path class="cls-3" d="M840,24a3,3,0,0,1,2.67,4.38l-3.24,6.25a3,3,0,0,1-2.57,1.63l-20.11.68L805,60.1,790.82,88.29a3,3,0,0,1-2.36,1.64l-16.59,1.81a2,2,0,0,1-.34,0,3,3,0,0,1-2.68-4.32Q781,62.59,793.26,37.72l-16.67.56h-.11a3,3,0,0,1-2.7-4.29l3.53-7.37A3,3,0,0,1,780,24.91l19.72-.31,23.41-.36L839.92,24H840m0-5h-.13l-6.53.1L823,19.24l-22.25.35h-1.17l-19.72.31a8.07,8.07,0,0,0-7.1,4.55l-3.53,7.36a8,8,0,0,0,7.21,11.46h.28L785.1,43,764.36,85.24a8,8,0,0,0,7.17,11.52,8.64,8.64,0,0,0,.88,0l8.34-.92,8.26-.9a8,8,0,0,0,6.28-4.35l7.1-14.1,7.11-14.1L816.74,48l3.11-6.17L837,41.23a8,8,0,0,0,6.84-4.32l2-3.92,1.21-2.34A8,8,0,0,0,840,19Z" transform="translate(-19 -17.98)"/><path class="cls-4" d="M746,63.64,731.49,94.19a3,3,0,0,1-2.39,1.69l-16.81,1.85a3,3,0,0,1-3-4.25Q715.12,80.82,721,68.15l-24.78,1.76q-6.69,14.78-13.39,29.56a3,3,0,0,1-2.41,1.75L663.77,103a3,3,0,0,1-3.07-4.2l31.44-71a3,3,0,0,1,2.7-1.78l16.64-.26A3,3,0,0,1,714.26,30L702.39,56.25l24.74-1.33Q733.6,41,740.05,27.06a3,3,0,0,1,2.69-1.74l16.81-.26a3,3,0,0,1,2.76,4.29Z" transform="translate(-19 -17.98)"/><path class="cls-3" d="M759.6,25.06a3,3,0,0,1,2.71,4.29L746,63.64,731.49,94.19a3,3,0,0,1-2.39,1.69l-16.81,1.85H712a3,3,0,0,1-2.71-4.26Q715.12,80.82,721,68.15l-24.78,1.76q-6.69,14.78-13.39,29.56a3,3,0,0,1-2.41,1.75L663.77,103l-.34,0a3,3,0,0,1-2.73-4.22l31.44-71a3,3,0,0,1,2.7-1.78l16.64-.26h0A3,3,0,0,1,714.26,30L702.39,56.25l24.74-1.33Q733.6,41,740.05,27.06a3,3,0,0,1,2.69-1.74l16.81-.26h.05m0-5h-.13l-9.76.15-7.05.11A8,8,0,0,0,735.52,25L726.9,43.53l-3,6.56-13.52.73,2.54-5.61,5.93-13.11a8,8,0,0,0-7.29-11.3h-.12l-1.25,0-15.38.24a8,8,0,0,0-7.2,4.76l-31.44,71a8,8,0,0,0,7.3,11.24,8.85,8.85,0,0,0,.89,0l6.08-.67L681,106.19a8,8,0,0,0,6.42-4.66l6.69-14.78,5.47-12.07,4.74-.33,8.61-.61L708.57,83l-3.87,8.34A8,8,0,0,0,712,102.74a8.64,8.64,0,0,0,.88,0l16.82-1.85A8.05,8.05,0,0,0,736,96.33l1.2-2.52,13.31-28,10.93-23,5.37-11.31a8,8,0,0,0-7.22-11.43Z" transform="translate(-19 -17.98)"/><path class="cls-5" d="M660.35,67.27l-2.16,4.91q-6.15,14-12.31,28a5,5,0,0,1-3.25,2.81c-2.11.59-4.3,1.17-6.59,1.71-5.61,1.32-13,2.47-20.92,3.61C603.52,110,586,108.11,585,93.14c-.11-4,1.64-10.83,5.76-20.79.91-2.22,1.37-3.33,2.29-5.55,3.57-8.85,8.16-18,15.24-24.62a62.61,62.61,0,0,1,42.18-16.06,140.52,140.52,0,0,1,18.72,1.24,3,3,0,0,1,2.48,3.88l-3.79,12.12a173.51,173.51,0,0,0-22-1.12q-12.29.42-17.67,4.17c-3.15,1.54-8.4,8.75-12.31,19.07l-3.71,8.75c-4.34,9.47-3.39,13.86-2.46,15,1.16,1.43,5.66,3.39,14.27,2.6l2.45-.22,1.85-.17,7.62-17.7-8.15.58a3,3,0,0,1-2.84-4.43c1.56-2.86,2.88-5.29,4.71-8.63a3,3,0,0,1,2.48-1.57l9.22-.49,18.27-1a3,3,0,0,1,2.91,4.21Z" transform="translate(-19 -17.98)"/><path class="cls-3" d="M650.37,26.12h.07a140.52,140.52,0,0,1,18.72,1.24,3,3,0,0,1,2.48,3.88l-3.79,12.12a186.63,186.63,0,0,0-19.4-1.16c-1,0-1.84,0-2.62,0q-12.29.42-17.67,4.17c-3.15,1.54-8.4,8.75-12.31,19.07q-1.86,4.38-3.71,8.75c-4.34,9.47-3.39,13.86-2.46,15S614,92,620.16,92c1.16,0,2.42,0,3.79-.18l2.45-.22,1.85-.17,7.62-17.7-8.15.58h-.22a3,3,0,0,1-2.62-4.44c1.56-2.86,2.88-5.29,4.71-8.63a3,3,0,0,1,2.48-1.57l9.22-.49,18.27-1h.17a3,3,0,0,1,2.74,4.21l-2.12,4.83-2.16,4.91q-6.15,14-12.31,28a5,5,0,0,1-3.25,2.81c-2.11.59-4.3,1.17-6.59,1.71-5.61,1.32-13,2.47-20.92,3.61a48.64,48.64,0,0,1-7,.51c-10.59,0-22.31-3.54-23.14-15.7-.11-4,1.64-10.83,5.76-20.79.91-2.22,1.37-3.33,2.29-5.55,3.57-8.85,8.16-18,15.24-24.62,11.37-10.49,26.83-16.06,42.11-16.06m0-5a67.67,67.67,0,0,0-45.5,17.38c-8.28,7.7-13.16,18.17-16.49,26.43l-1,2.46-1.25,3c-4.27,10.32-6.28,17.8-6.14,22.84a1.34,1.34,0,0,1,0,.2c.87,12.75,11.39,20.36,28.13,20.36a53.77,53.77,0,0,0,7.72-.56c8.81-1.27,15.81-2.39,21.36-3.69,2-.49,4.14-1,6.78-1.76a10,10,0,0,0,6.49-5.62l12.31-28,1.08-2.46,1.08-2.45.9-2,1.22-2.79a8,8,0,0,0-7.32-11.22h-.44l-5.95.32L641,54.22l-4.5.25-4.72.25a8.07,8.07,0,0,0-6.6,4.16l-4.71,8.63a8,8,0,0,0,7,11.84l.53,0-.37.85-2.83,6.57-.21,0-1.13.1c-1.16.11-2.28.16-3.33.16a17,17,0,0,1-6.27-.92c0-1.21.23-4.2,2.79-9.8l.06-.13,2.11-5,1.6-3.77a1.34,1.34,0,0,0,.07-.18c3.69-9.71,8.3-15.54,9.85-16.36a5.52,5.52,0,0,0,.66-.4c1.89-1.32,6-3,15-3.26.73,0,1.56,0,2.46,0a184.72,184.72,0,0,1,18.84,1.12,3.6,3.6,0,0,0,.56,0,5,5,0,0,0,4.77-3.51l3.79-12.12a8,8,0,0,0-6.59-10.33,146.44,146.44,0,0,0-19.37-1.28Z" transform="translate(-19 -17.98)"/><path class="cls-6" d="M577.71,74.27l-15.28,37.21a3,3,0,0,1-2.45,1.84l-16.77,1.84a3,3,0,0,1-3.11-4.11l32.8-81.42a3,3,0,0,1,2.75-1.88l16.74-.26a3,3,0,0,1,2.82,4.14Z" transform="translate(-19 -17.98)"/><path class="cls-3" d="M592.44,27.49a3,3,0,0,1,2.77,4.14l-17.5,42.64-15.28,37.21a3,3,0,0,1-2.45,1.84l-16.77,1.84h-.34a3,3,0,0,1-2.77-4.12l32.8-81.42a3,3,0,0,1,2.75-1.88l16.74-.26h.05m0-5h-.13L580,22.68l-4.4.07a8,8,0,0,0-7.3,5L551.86,68.47l-16.4,40.71a8,8,0,0,0,7.41,11,8.83,8.83,0,0,0,.89,0l5.09-.56,11.67-1.28a8,8,0,0,0,6.54-4.92l15.27-37.2,14-34.11,3.5-8.53a8,8,0,0,0-7.4-11Z" transform="translate(-19 -17.98)"/><path class="cls-7" d="M500.6,119.39q8.76-32,17.44-64L470,84.5l-6.64-26.78q-16.49,33.91-32.85,67.9a3,3,0,0,1-2.43,1.7l-19.52,2a3,3,0,0,1-3-4.33q23.81-47.84,47.93-95.5a3,3,0,0,1,2.8-1.65L487.11,29a3,3,0,0,1,2.66,1.84L494,41l18.84-11.9a2.84,2.84,0,0,1,1.55-.46l30-.47a3,3,0,0,1,3,3.71q-10.26,42.35-20.67,84.65Z" transform="translate(-19 -17.98)"/><path class="cls-3" d="M456.17,27.79h.12L487.11,29a3,3,0,0,1,2.66,1.84L494,41l18.84-11.9a2.84,2.84,0,0,1,1.55-.46l30-.47h.05a3,3,0,0,1,2.91,3.71q-10.26,42.35-20.67,84.65l-26.12,2.86q8.76-32,17.44-64L470,84.5l-6.64-26.78q-16.49,33.91-32.85,67.9a3,3,0,0,1-2.43,1.7l-19.52,2-.31,0a3,3,0,0,1-2.69-4.35q23.81-47.84,47.93-95.5a3,3,0,0,1,2.68-1.65m0-5A8,8,0,0,0,449,27.18c-15.84,31.29-32,63.43-47.94,95.53a8,8,0,0,0,7.16,11.58c.26,0,.54,0,.8,0l19.53-2a8.05,8.05,0,0,0,6.43-4.5c8.92-18.51,17.91-37.12,26.82-55.47l3.32,13.38a5,5,0,0,0,2.94,3.42,5,5,0,0,0,4.5-.35l37.35-22.65c-4.72,17.36-9.47,34.78-14.16,51.95a5,5,0,0,0,4.82,6.32l.55,0,10.45-1.15,15.66-1.71a5,5,0,0,0,4.31-3.78c6.86-27.88,13.82-56.37,20.68-84.66a8,8,0,0,0-7.77-9.89h-.36l-29.81.46a8,8,0,0,0-4.14,1.23L496.35,33.6l-2-4.71A8,8,0,0,0,487.3,24L456.48,22.8Z" transform="translate(-19 -17.98)"/><path class="cls-8" d="M286.67,135.47c1.38-5.18,2.47-9.25,3.92-14.67a5,5,0,0,1,5.57-3.65,96.24,96.24,0,0,0,21.8,1.07q13.1-1.18,17.52-8.28a8,8,0,0,0,1.83-5.6C337,100,332,98.26,325.57,96.48c-6.75-1.88-15.83-4.85-19.06-11.56s.17-16.59,2.93-23.16C313.79,51.38,320.89,41.52,331,36.1c7.73-4.16,15.52-5,22.38-5.49l3.41-.05A115.4,115.4,0,0,1,374,31.76,5,5,0,0,1,378.13,38c-1.25,4.68-2.24,8.38-3.53,13.16a5,5,0,0,1-5.75,3.63A86.53,86.53,0,0,0,351,53.36c-9.16.32-15.27,3-18.52,7.89a10.1,10.1,0,0,0-1.89,5.85c.3,4.75,5.72,6.74,12.55,9,7.26,2.35,15.15,5.14,18.05,10.82,3.25,6.34.1,15.85-2.48,21.66-4.54,10.2-11.78,19.6-21.51,25.35-7.78,4.6-15.59,6-22.64,7.16l-3,.33a123.9,123.9,0,0,1-20.46.39A5,5,0,0,1,286.67,135.47Z" transform="translate(-19 -17.98)"/><path class="cls-3" d="M358.05,30.55A118.29,118.29,0,0,1,374,31.76,5,5,0,0,1,378.13,38c-1.25,4.68-2.24,8.38-3.53,13.16a5,5,0,0,1-4.83,3.71,5.72,5.72,0,0,1-.92-.08,89.88,89.88,0,0,0-15.57-1.48c-.75,0-1.49,0-2.24,0-9.16.32-15.27,3-18.52,7.89a10.1,10.1,0,0,0-1.89,5.85c.3,4.75,5.72,6.74,12.55,9,7.26,2.35,15.15,5.14,18.05,10.82,3.25,6.34.1,15.85-2.48,21.66-4.54,10.2-11.78,19.6-21.51,25.35-7.78,4.6-15.59,6-22.64,7.16l-3,.33a111.62,111.62,0,0,1-12.23.64c-3,0-5.77-.11-8.23-.25a5,5,0,0,1-4.52-6.29c1.38-5.18,2.47-9.25,3.92-14.67a5,5,0,0,1,4.82-3.71,4.84,4.84,0,0,1,.75.06,110,110,0,0,0,16,1.32c1.95,0,3.91-.08,5.82-.25q13.1-1.18,17.52-8.28a8,8,0,0,0,1.83-5.6C337,100,332,98.26,325.57,96.48c-6.75-1.88-15.83-4.85-19.06-11.56s.17-16.59,2.93-23.16C313.79,51.38,320.89,41.52,331,36.1c7.73-4.16,15.52-5,22.38-5.49l3.41-.05h1.29m0-5h-1.36l-1.71,0-1.71,0-.31,0c-7.75.6-16,1.57-24.36,6.06-12.78,6.89-20,19.1-23.77,28.13-3.19,7.6-6.95,18.69-2.82,27.27,3.93,8.16,13.44,11.76,22.22,14.2,6.16,1.72,7.8,2.76,8.09,3.34v0c0,.09,0,.17,0,.25a3.77,3.77,0,0,1-.92,2.11l-.18.26c-2.07,3.31-6.69,5.32-13.73,5.95-1.66.15-3.47.23-5.37.23a103.93,103.93,0,0,1-15.23-1.27,10.7,10.7,0,0,0-1.5-.11,10,10,0,0,0-9.65,7.42c-1.45,5.42-2.54,9.49-3.92,14.67a10,10,0,0,0,9.05,12.57c2.9.17,5.77.26,8.53.26a117.61,117.61,0,0,0,12.77-.67l.89-.1,2.07-.23.29,0c7-1.18,15.68-2.66,24.35-7.78,12.61-7.46,19.75-19.14,23.53-27.63,3.32-7.47,6.42-18,2.37-26-3.7-7.21-12-10.41-21-13.3-2.9-.94-8.9-2.88-9.1-4.46A5.79,5.79,0,0,1,336.71,64c2.33-3.47,7.21-5.36,14.51-5.61.67,0,1.36,0,2.06,0A84.79,84.79,0,0,1,368,59.72a10,10,0,0,0,11.48-7.25c1.29-4.78,2.28-8.48,3.53-13.17a10,10,0,0,0-8.27-12.49,120.21,120.21,0,0,0-16.64-1.26Z" transform="translate(-19 -17.98)"/><path class="cls-9" d="M208.28,146.26c2-7.61,3.24-12.61,5.24-20.39a3,3,0,0,1,3.44-2.21c5.36,1,14.87,2.35,23.43,1.57q13.1-1.19,17.57-8.74a9.05,9.05,0,0,0,1.87-6c-.26-4.62-5.28-6.53-11.68-8.47-6.72-2-15.78-5.25-19-12.42s.29-17.7,3.09-24.7c4.33-10.84,11.37-21.4,21.71-27.32,7.76-4.44,15.55-5.26,22.41-5.82l3.41-.06a113.6,113.6,0,0,1,19.58,1.67,3,3,0,0,1,2.41,3.71c-1.81,7-3,11.66-4.83,18.72A3,3,0,0,1,293.4,58a82,82,0,0,0-19.47-1.93c-9.16.32-15.29,3.15-18.57,8.37a11.47,11.47,0,0,0-1.94,6.25c.27,5.06,5.67,7.21,12.48,9.6,7.24,2.53,15.1,5.54,18,11.65,3.2,6.8,0,17-2.65,23.18-4.51,10.69-11.69,20.78-21.68,27-7.81,4.88-15.62,6.26-22.67,7.49l-3,.33a118.85,118.85,0,0,1-23,.05A3,3,0,0,1,208.28,146.26Z" transform="translate(-19 -17.98)"/><path class="cls-3" d="M281,31.71a115.69,115.69,0,0,1,18.38,1.67,3,3,0,0,1,2.41,3.71c-1.81,7-3,11.66-4.83,18.72a3,3,0,0,1-2.9,2.26,3.14,3.14,0,0,1-.67-.08A84.48,84.48,0,0,0,276,56c-.69,0-1.39,0-2.08,0-9.16.32-15.29,3.15-18.57,8.37a11.47,11.47,0,0,0-1.94,6.25c.27,5.06,5.67,7.21,12.48,9.6,7.24,2.53,15.1,5.54,18,11.65,3.2,6.8,0,17-2.65,23.18-4.51,10.69-11.69,20.78-21.68,27-7.81,4.88-15.62,6.26-22.67,7.49l-3,.33a103.74,103.74,0,0,1-11.31.59c-4.43,0-8.45-.25-11.69-.54a3,3,0,0,1-2.63-3.74c2-7.61,3.24-12.61,5.24-20.39a3,3,0,0,1,2.9-2.26,3.29,3.29,0,0,1,.54,0,104.24,104.24,0,0,0,18,1.8c1.81,0,3.61-.07,5.38-.23q13.1-1.19,17.57-8.74a9.05,9.05,0,0,0,1.87-6c-.26-4.62-5.28-6.53-11.68-8.47-6.72-2-15.78-5.25-19-12.42s.29-17.7,3.09-24.7c4.33-10.84,11.37-21.4,21.71-27.32,7.76-4.44,15.55-5.26,22.41-5.82l3.41-.06H281m0-5h-1.27l-3.33.05H276c-6.14.51-15.4,1.27-24.49,6.47-12.81,7.34-20.05,20.26-23.87,29.8-3.19,8-7,19.64-3,28.58,3.84,8.65,13.32,12.53,22.08,15.19,2.21.67,8.06,2.44,8.14,4a1.79,1.79,0,0,0,0,.23,4.65,4.65,0,0,1-1,2.67c-.06.08-.11.17-.17.26-2.11,3.56-6.72,5.68-13.72,6.31-1.53.14-3.19.21-4.93.21a97.5,97.5,0,0,1-17.14-1.72,8.78,8.78,0,0,0-1.45-.13,8,8,0,0,0-7.74,6c-2,7.78-3.29,12.79-5.24,20.4a8,8,0,0,0,7,10c4.16.37,8.24.56,12.13.56a109.41,109.41,0,0,0,11.86-.62l3-.33.31,0c7-1.23,15.76-2.74,24.46-8.18,12.65-7.9,19.84-20.3,23.64-29.31,3.32-7.87,6.46-19,2.57-27.26s-14.1-11.88-20.84-14.24c-4.54-1.59-9-3.3-9.14-5.11a6.93,6.93,0,0,1,1.19-3.4c2.41-3.78,7.15-5.74,14.5-6,.61,0,1.26,0,1.9,0a80.19,80.19,0,0,1,16.3,1.85,8,8,0,0,0,9.51-5.81l4.82-18.72a8,8,0,0,0-6.44-9.89A118.73,118.73,0,0,0,281,26.71Z" transform="translate(-19 -17.98)"/><path class="cls-10" d="M211.16,98.82l-17,52.69a3,3,0,0,1-2.54,2.06l-17,1.86a3,3,0,0,1-3.19-3.89q18.5-58,37-116.08a3,3,0,0,1,2.82-2.08l16.94-.27A3,3,0,0,1,231.1,37Q221.14,67.93,211.16,98.82Z" transform="translate(-19 -17.98)"/><path class="cls-3" d="M228.25,33.11A3,3,0,0,1,231.1,37q-10,30.9-19.94,61.79l-17,52.69a3,3,0,0,1-2.54,2.06l-17,1.86a2,2,0,0,1-.34,0,3,3,0,0,1-2.85-3.91q18.5-58,37-116.08a3,3,0,0,1,2.82-2.08l16.94-.27h.05m0-5h-.13l-8.53.14-8.41.13a8,8,0,0,0-7.5,5.56L191.62,71.78l-25,78.24a8,8,0,0,0,7.62,10.43,6.49,6.49,0,0,0,.88,0l17-1.86a8,8,0,0,0,6.75-5.49l17-52.69,19.94-61.79a8,8,0,0,0-7.61-10.46Z" transform="translate(-19 -17.98)"/><path class="cls-11" d="M134.36,155.5c6.5-28.08,14.3-55.81,20.64-83.94l-51,30.29L95,79c-11.87,30.7-20.08,56.15-31.74,86.68a3,3,0,0,1-2.53,1.92l-19.87,1.92a3,3,0,0,1-3.07-4.1Q63.32,101.17,89.14,37.06a3,3,0,0,1,2.74-1.88l30.87-.48a3,3,0,0,1,3,2.68l2,18.62,21.4-20.89a3,3,0,0,1,2-.85L181,33.8a3,3,0,0,1,3,3.6Q172,96,160,154.62a3,3,0,0,1-2.62,2.38l-19.72,2.16A3,3,0,0,1,134.36,155.5Z" transform="translate(-19 -17.98)"/><path class="cls-3" d="M181.07,33.8A3,3,0,0,1,184,37.4Q172,96,160,154.62a3,3,0,0,1-2.62,2.38l-19.72,2.16-.34,0a3,3,0,0,1-2.92-3.68c6.5-28.08,14.3-55.81,20.64-83.94l-51,30.29L95,79c-11.87,30.7-20.08,56.15-31.74,86.68a3,3,0,0,1-2.53,1.92l-19.87,1.92-.3,0a3,3,0,0,1-2.77-4.12Q63.32,101.17,89.14,37.06a3,3,0,0,1,2.74-1.88l30.87-.48h0a3,3,0,0,1,3,2.68l2,18.62,21.4-20.89a3,3,0,0,1,2-.85L181,33.8h0m0-5H181l-29.83.46a8,8,0,0,0-5.47,2.27l-14,13.69-.89-8.36a8,8,0,0,0-8-7.16h-.59l-30.41.47a8,8,0,0,0-7.3,5c-17,42.11-34.24,85.3-51.36,128.35a8,8,0,0,0,7.42,11c.26,0,.52,0,.78,0l19.87-1.92a8.07,8.07,0,0,0,6.72-5.12c5.6-14.66,10.47-28.35,15.19-41.58,3.79-10.65,7.68-21.56,12-33l4.27,10.85a5,5,0,0,0,7.2,2.47l40.93-24.31c-2.65,11.09-5.47,22.18-8.23,33-3.29,12.93-6.69,26.29-9.77,39.54a8,8,0,0,0,7.8,9.81,8.65,8.65,0,0,0,.88-.05l16.13-1.77,3.6-.39a8,8,0,0,0,7-6.34c8-38.83,16.09-78.27,24-117.23a8,8,0,0,0-7.84-9.6Z" transform="translate(-19 -17.98)"/></g></svg>